<?xml version="1.0" standalone="no"?>
<!DOCTYPE svg PUBLIC "-//W3C//DTD SVG 20010904//EN"
 "http://www.w3.org/TR/2001/REC-SVG-20010904/DTD/svg10.dtd">
<svg version="1.0" xmlns="http://www.w3.org/2000/svg"
 width="944.000000pt" height="944.000000pt" viewBox="0 0 944.000000 944.000000"
 preserveAspectRatio="xMidYMid meet">
<metadata>
Created by potrace 1.14, written by Peter Selinger 2001-2017
</metadata>
<g transform="translate(0.000000,944.000000) scale(0.100000,-0.100000)"
fill="#000000" stroke="none">
<path d="M7457 7153 c-1 0 -18 -4 -38 -7 -20 -3 -42 -7 -50 -10 -8 -3 -32 -7
-54 -10 -22 -3 -65 -10 -95 -16 -30 -7 -70 -13 -88 -15 -18 -2 -41 -6 -50 -9
-9 -3 -35 -8 -57 -11 -23 -3 -52 -8 -65 -10 -35 -7 -141 -26 -167 -30 -12 -2
-34 -6 -50 -9 -15 -3 -45 -9 -67 -12 -21 -3 -48 -8 -60 -10 -11 -2 -34 -6 -51
-9 -46 -8 -78 -14 -100 -18 -11 -3 -40 -8 -65 -12 -25 -4 -56 -9 -70 -12 -23
-3 -173 -31 -211 -38 -9 -2 -34 -6 -55 -9 -48 -8 -103 -17 -129 -23 -11 -2
-36 -6 -55 -9 -41 -6 -75 -12 -75 -14 0 -1 -16 -3 -35 -6 -19 -2 -55 -8 -80
-14 -25 -5 -63 -12 -85 -16 -63 -8 -93 -13 -123 -19 -49 -10 -66 -14 -102 -19
-19 -3 -46 -8 -60 -11 -14 -3 -38 -7 -55 -9 -16 -3 -66 -12 -110 -20 -44 -9
-96 -17 -115 -20 -19 -2 -55 -9 -80 -14 -25 -5 -52 -10 -60 -10 -8 0 -26 -3
-40 -7 -25 -6 -43 -10 -108 -20 -18 -2 -96 -17 -175 -31 -78 -15 -153 -28
-167 -29 -14 -2 -26 -4 -27 -5 -2 -1 -11 -3 -20 -4 -15 -2 -93 -16 -113 -21
-3 -1 -30 -5 -60 -10 -30 -5 -57 -9 -60 -10 -23 -6 -117 -18 -123 -17 -4 1
-16 -2 -26 -7 -9 -5 -42 -12 -72 -16 -30 -3 -63 -8 -74 -10 -38 -9 -80 -17
-105 -20 -14 -2 -25 -4 -25 -5 0 -1 -13 -4 -30 -5 -16 -2 -41 -6 -55 -9 -14
-3 -79 -15 -145 -26 -66 -12 -131 -23 -145 -26 -14 -2 -41 -7 -60 -10 -19 -3
-42 -7 -50 -9 -8 -3 -33 -7 -55 -10 -22 -3 -62 -10 -90 -15 -27 -5 -63 -12
-80 -15 -16 -3 -41 -7 -55 -10 -14 -3 -41 -8 -60 -10 -19 -3 -46 -8 -60 -12
-14 -3 -41 -7 -60 -9 -19 -1 -35 -3 -35 -4 0 -3 -41 -11 -57 -11 -21 0 -23
-15 -5 -33 7 -8 29 -33 48 -56 18 -23 39 -47 44 -54 20 -22 112 -131 131 -155
11 -13 24 -29 31 -35 9 -11 61 -73 133 -159 8 -10 25 -31 38 -45 13 -15 33
-40 45 -55 12 -16 43 -52 69 -80 26 -29 50 -60 53 -69 4 -10 10 -18 14 -18 4
0 32 -30 61 -66 30 -37 59 -72 65 -78 5 -6 32 -38 60 -71 27 -33 54 -65 60
-71 5 -6 24 -28 40 -49 17 -21 35 -43 40 -49 6 -6 44 -51 85 -101 41 -49 77
-92 80 -95 3 -3 27 -32 54 -65 28 -33 57 -67 65 -76 9 -9 23 -25 31 -35 67
-84 97 -120 110 -134 8 -8 31 -35 50 -59 36 -44 43 -52 113 -135 23 -27 51
-60 62 -74 11 -14 39 -46 62 -71 23 -25 43 -49 43 -52 0 -6 63 -80 107 -126
12 -13 19 -23 15 -23 -4 0 0 -6 8 -13 13 -10 83 -91 190 -220 8 -10 22 -27 30
-37 24 -28 83 -99 103 -123 29 -35 90 -107 112 -132 11 -13 34 -41 52 -62 17
-21 39 -48 50 -59 10 -12 34 -41 53 -65 19 -24 45 -53 57 -66 12 -13 20 -23
18 -23 -2 0 8 -12 22 -27 14 -16 42 -48 62 -73 20 -24 43 -52 51 -61 8 -9 31
-35 49 -59 19 -23 40 -48 46 -54 5 -6 30 -36 55 -66 25 -30 55 -66 67 -80 12
-14 39 -46 60 -71 46 -54 114 -136 140 -165 10 -12 32 -39 48 -60 17 -21 38
-45 48 -53 9 -9 17 -21 17 -28 0 -7 6 -13 13 -13 11 0 64 126 59 143 -1 4 3 7
8 7 6 0 10 6 10 13 0 12 96 287 120 342 4 11 13 36 20 55 7 19 16 44 21 55 4
11 15 40 23 65 8 25 22 62 30 82 9 21 16 40 16 43 0 3 3 10 5 17 10 25 56 153
59 163 2 6 8 23 14 38 7 16 12 35 12 43 0 8 5 14 12 14 6 0 9 3 6 6 -3 3 5 35
19 72 14 37 41 112 60 167 19 55 40 106 45 113 6 6 8 12 5 12 -4 0 2 20 13 45
11 25 20 47 20 50 1 12 13 44 50 140 4 11 15 43 25 70 9 28 20 59 25 70 19 48
62 166 64 178 3 11 15 44 33 87 3 8 7 20 9 25 1 6 16 48 34 95 18 47 33 90 34
95 1 6 8 20 14 33 7 12 10 22 7 22 -3 0 1 13 10 30 8 16 15 33 15 37 0 5 16
49 34 98 19 50 37 99 42 110 4 11 8 25 9 30 2 6 26 73 55 150 29 77 53 144 54
150 2 9 48 133 71 190 5 11 9 22 10 25 8 31 29 91 61 175 4 11 6 23 6 28 -1 4
2 7 6 7 5 0 9 6 9 13 1 17 7 41 13 47 3 3 20 48 39 100 51 143 158 439 197
545 39 105 56 151 58 160 2 6 6 17 9 25 15 35 99 266 102 280 2 8 11 32 19 53
l16 37 -36 -2 c-19 -2 -36 -4 -37 -5z"/>
<path d="M3969 4296 c-4 -4 -42 -10 -119 -21 -19 -3 -46 -8 -60 -11 -14 -4
-32 -8 -40 -9 -8 -1 -58 -9 -110 -19 -110 -19 -139 -24 -255 -45 -65 -11 -99
-17 -159 -26 -21 -4 -48 -9 -60 -11 -11 -2 -37 -7 -56 -10 -19 -3 -42 -7 -50
-9 -8 -3 -32 -7 -54 -11 -43 -6 -69 -11 -106 -19 -14 -3 -38 -7 -55 -9 -16 -2
-57 -9 -90 -15 -33 -6 -73 -13 -90 -15 -16 -3 -55 -10 -85 -16 -30 -6 -68 -13
-85 -15 -16 -3 -41 -7 -55 -10 -87 -18 -143 -26 -148 -21 -3 3 -10 2 -16 -3
-6 -5 -33 -12 -61 -15 -27 -4 -57 -9 -65 -11 -15 -4 -69 -14 -105 -20 -11 -1
-49 -8 -85 -14 -36 -6 -76 -13 -90 -15 -14 -3 -25 -5 -25 -6 0 -1 -11 -3 -25
-5 -14 -1 -41 -6 -60 -10 -19 -4 -46 -9 -60 -10 -14 -2 -25 -4 -25 -5 0 -1 -9
-3 -20 -4 -60 -8 -105 -19 -105 -25 0 -6 26 -38 114 -141 11 -14 55 -66 96
-115 41 -50 79 -95 85 -102 5 -6 26 -30 45 -54 19 -23 40 -47 45 -53 6 -6 30
-36 55 -66 25 -30 47 -57 50 -60 3 -3 64 -75 135 -160 71 -85 137 -164 146
-175 10 -11 37 -42 59 -70 37 -44 64 -76 137 -161 10 -12 29 -36 42 -53 14
-18 36 -44 50 -60 14 -15 35 -39 46 -53 11 -14 39 -47 62 -74 53 -63 70 -83
113 -136 19 -23 45 -53 57 -65 12 -13 20 -23 18 -23 -2 0 6 -10 18 -23 12 -12
37 -41 55 -64 19 -23 44 -53 55 -66 23 -25 37 -43 73 -89 27 -34 31 -30 72 82
51 142 152 419 188 520 19 52 37 102 41 110 3 8 7 20 8 25 2 6 26 73 55 150
28 77 63 174 77 214 15 41 32 86 40 100 7 15 13 31 13 38 0 6 5 24 12 40 6 15
12 33 13 39 2 6 20 54 40 105 21 52 38 99 40 104 1 6 5 18 9 27 4 9 8 22 10
30 1 7 4 18 7 23 4 6 12 28 19 50 7 22 20 56 28 75 9 19 17 42 18 51 2 9 9 29
15 45 7 16 13 31 14 34 6 16 19 51 36 97 12 29 22 58 23 65 2 7 8 27 15 43 6
17 16 41 20 55 5 14 21 58 36 98 24 64 29 92 14 78z"/>
</g>
</svg>
