<svg width="500" height="500" viewBox="0 0 500 500" fill="none" xmlns="http://www.w3.org/2000/svg">
<rect width="500" height="500" rx="50" fill="black"/>
<path d="M260.313 133.948L251.836 142.424L247.598 138.684L239.371 131.454L234.634 128.463L223.913 122.978L215.437 120.983H207.21L199.232 124.474L190.007 134.197L184.522 142.673L181.281 150.402L179.785 156.136L176.046 155.388L171.309 153.892L164.578 152.397H149.12L141.392 155.388L137.901 158.38L132.666 166.358L131.918 173.089L132.666 184.807L133.164 194.031L124.439 196.275L116.71 198.519L109.231 202.009L105.491 205.5L102.25 211.732V216.469L102.998 224.696L106.987 235.167L114.217 246.137L121.198 254.614L130.671 263.09V267.827V283.284L133.164 296.498L137.153 309.213L144.882 324.67L155.602 339.878L164.578 349.85L175.796 360.072L200.478 375.03L215.686 380.515L230.395 383.507L250.839 385.501L256.074 385.252L271.781 383.756L286.49 380.017L303.443 373.784L321.892 362.814L334.108 352.842L342.585 344.615L351.56 332.398L356.796 323.922L361.532 313.451L362.53 310.708L367.017 299.739L368.513 292.259L370.258 278.049V274.06L370.757 263.09L373.749 261.096L378.236 257.605L380.729 254.863L385.965 249.877L391.699 242.148L396.436 233.173L397.184 228.935L396.436 219.212L395.189 216.469L393.444 213.727L390.203 210.735L387.461 208.491L379.233 203.754L370.508 199.267L372.751 195.278L373.998 192.037L375.992 187.799L376.74 184.557V181.566V172.591V170.347L375.992 168.352L374.746 166.109L373.001 163.366L370.508 161.122L367.765 159.128L364.524 157.881L359.787 156.635H340.092L331.366 157.881L330.618 154.89L328.624 148.657L327.128 143.671L325.382 138.435L321.892 131.205L316.906 123.726L314.164 120.983L307.432 116.496L304.191 115.249L300.451 115H296.463L293.221 115.249L286.989 116.994L282.003 118.989L273.027 123.975L260.313 133.948Z" fill="white" stroke="url(#paint0_linear_202_22)" stroke-width="5"/>
<path d="M231.392 337.883L223.913 335.39H223.414L222.915 335.639L222.666 336.387V337.634L223.414 339.13L224.91 340.626L227.652 343.867L231.392 346.36L234.134 347.856L236.877 349.102L240.118 349.85L245.852 351.346H249.591H253.331L257.569 350.847L261.06 350.349L264.799 349.102L269.786 347.108L272.777 345.113L275.27 342.869L277.514 339.878L278.262 337.883V336.387L277.514 335.39H275.769L274.273 335.889L272.029 337.135L269.536 338.132L260.561 340.626L256.323 341.124L246.35 341.623L238.123 339.878L231.392 337.883Z" fill="black"/>
<path d="M205.962 226.192L185.27 232.674L188.76 240.154L218.926 230.181L205.962 226.192Z" fill="black"/>
<ellipse cx="206.462" cy="279.295" rx="8.22723" ry="14.7093" fill="black"/>
<path d="M294.467 226.192L315.16 232.674L311.67 240.154L281.503 230.181L294.467 226.192Z" fill="black"/>
<ellipse cx="8.22723" cy="14.7093" rx="8.22723" ry="14.7093" transform="matrix(-1 0 0 1 302.195 264.586)" fill="black"/>
<path d="M147.623 271.816L130.67 262.342V282.536L137.651 310.708L144.133 322.426L151.113 333.645L174.798 359.324L200.477 374.781L217.43 381.512L230.394 384.005L251.835 386L272.527 384.005L297.957 376.028L324.633 360.57L338.844 348.853L354.052 329.157L363.027 310.958L367.265 298.991L369.26 288.52L370.755 274.808L371.753 262.093L361.032 275.556L359.786 287.024L357.791 296.248L350.561 314.697L344.578 325.418L330.118 343.867L307.929 360.57L289.979 369.296L265.048 376.028H237.873L218.178 371.291L198.482 363.313L180.781 352.094L170.809 343.119L162.582 334.642L147.623 307.467L139.396 274.808L147.623 271.816Z" fill="url(#paint1_linear_202_22)"/>
<path d="M116.959 249.627L130.671 262.591L138.898 267.827L142.887 270.569L147.624 271.317L152.111 250.625L154.604 244.641L155.602 241.4L158.344 237.162L160.837 233.422L163.829 228.935L166.821 225.195L171.557 221.954L174.799 219.959L178.538 218.962H317.902L324.634 219.71L329.62 221.455L333.609 225.444L338.097 230.43L343.581 240.902L347.072 248.132L350.562 261.345L354.551 274.06L361.282 275.057L364.274 272.813L367.515 269.323L371.753 262.342L377.986 258.104L388.457 246.885L394.191 237.162L396.435 232.176L397.183 227.439L396.435 220.707L393.443 213.727L386.712 207.993L371.753 199.017L373.499 193.034L375.992 187.549V184.308L376.74 171.593L374.994 166.856L371.753 161.87L366.767 159.128L362.28 156.635H358.291L331.365 158.131V156.635L328.623 148.158L326.13 139.682L323.138 134.446L318.9 126.967L314.412 120.734L309.426 117.493L303.193 115.249H292.473L279.01 120.734L270.284 125.72L256.572 138.186L251.337 141.676L246.849 138.186L241.115 132.452L234.882 128.213L224.162 122.978L216.683 121.482L208.455 120.734L199.48 124.474L189.259 135.194L184.771 143.92L179.535 156.136L174.549 154.391L169.064 152.646H163.33H155.851H149.369L144.632 154.391L138.898 157.383L133.662 164.862L131.917 169.599L132.914 194.53H129.923L119.701 197.771L112.222 200.763L106.737 204.004L102 212.979L104.244 228.935L116.959 249.627Z" fill="#2742F5"/>
<defs>
<linearGradient id="paint0_linear_202_22" x1="249.717" y1="115" x2="249.717" y2="385.501" gradientUnits="userSpaceOnUse">
<stop stop-color="#2742F5"/>
<stop offset="1" stop-color="#6B81FA"/>
</linearGradient>
<linearGradient id="paint1_linear_202_22" x1="251.211" y1="262.093" x2="251.211" y2="386" gradientUnits="userSpaceOnUse">
<stop stop-color="#2742F5"/>
<stop offset="1" stop-color="#6B81FA"/>
</linearGradient>
</defs>
</svg>
