<svg width="433" height="192" viewBox="0 0 433 192" fill="none" xmlns="http://www.w3.org/2000/svg">
<rect x="0.5" y="0.5" width="432" height="191" rx="9.5" fill="#2742F5" fill-opacity="0.1" stroke="#2742F5"/>
<path d="M192.026 106.398C189.98 106.398 188.162 106.047 186.571 105.347C184.99 104.646 183.74 103.67 182.821 102.42C181.902 101.17 181.415 99.7263 181.358 98.0881H186.699C186.746 98.8741 187.007 99.5606 187.48 100.148C187.954 100.725 188.583 101.175 189.369 101.497C190.155 101.819 191.036 101.98 192.011 101.98C193.053 101.98 193.976 101.8 194.781 101.44C195.586 101.071 196.216 100.56 196.67 99.9062C197.125 99.2528 197.348 98.5 197.338 97.6477C197.348 96.767 197.12 95.9905 196.656 95.3182C196.192 94.6458 195.52 94.1203 194.639 93.7415C193.768 93.3627 192.717 93.1733 191.486 93.1733H188.915V89.1108H191.486C192.499 89.1108 193.384 88.9356 194.142 88.5852C194.909 88.2348 195.51 87.7424 195.946 87.108C196.382 86.464 196.595 85.7206 196.585 84.8778C196.595 84.054 196.41 83.339 196.031 82.733C195.662 82.1174 195.136 81.6392 194.455 81.2983C193.782 80.9574 192.991 80.7869 192.082 80.7869C191.192 80.7869 190.368 80.9479 189.611 81.2699C188.853 81.5919 188.242 82.0511 187.778 82.6477C187.314 83.2348 187.068 83.9356 187.04 84.75H181.969C182.007 83.1212 182.475 81.6913 183.375 80.4602C184.284 79.2197 185.496 78.2538 187.011 77.5625C188.527 76.8617 190.226 76.5114 192.111 76.5114C194.052 76.5114 195.738 76.8759 197.168 77.6051C198.607 78.3248 199.72 79.2955 200.506 80.517C201.292 81.7386 201.685 83.0881 201.685 84.5653C201.694 86.2036 201.211 87.5767 200.236 88.6847C199.27 89.7926 198.001 90.517 196.429 90.858V91.0852C198.474 91.3693 200.042 92.1269 201.131 93.358C202.229 94.5795 202.774 96.0994 202.764 97.9176C202.764 99.5464 202.3 101.005 201.372 102.293C200.454 103.571 199.185 104.575 197.565 105.304C195.955 106.033 194.109 106.398 192.026 106.398ZM218.393 106.554C216.054 106.554 214.046 105.962 212.37 104.778C210.703 103.585 209.42 101.866 208.521 99.6222C207.63 97.3684 207.185 94.6553 207.185 91.483C207.195 88.3106 207.645 85.6117 208.535 83.3864C209.434 81.1515 210.718 79.447 212.384 78.2727C214.06 77.0985 216.063 76.5114 218.393 76.5114C220.722 76.5114 222.725 77.0985 224.401 78.2727C226.077 79.447 227.361 81.1515 228.251 83.3864C229.15 85.6212 229.6 88.3201 229.6 91.483C229.6 94.6648 229.15 97.3826 228.251 99.6364C227.361 101.881 226.077 103.595 224.401 104.778C222.735 105.962 220.732 106.554 218.393 106.554ZM218.393 102.108C220.211 102.108 221.646 101.213 222.697 99.4233C223.757 97.6241 224.288 94.9773 224.288 91.483C224.288 89.1723 224.046 87.2311 223.563 85.6591C223.08 84.0871 222.398 82.9034 221.518 82.108C220.637 81.303 219.595 80.9006 218.393 80.9006C216.584 80.9006 215.154 81.8002 214.103 83.5994C213.052 85.3892 212.522 88.017 212.512 91.483C212.503 93.803 212.735 95.7538 213.208 97.3352C213.691 98.9167 214.373 100.11 215.254 100.915C216.134 101.71 217.181 102.108 218.393 102.108ZM251.621 89.9489L246.933 90.4602C246.801 89.9867 246.569 89.5417 246.237 89.125C245.915 88.7083 245.48 88.3722 244.93 88.1165C244.381 87.8608 243.709 87.733 242.913 87.733C241.843 87.733 240.944 87.965 240.214 88.429C239.495 88.893 239.14 89.4943 239.149 90.233C239.14 90.8674 239.372 91.3835 239.845 91.7812C240.328 92.179 241.124 92.5057 242.232 92.7614L245.953 93.5568C248.018 94.0019 249.552 94.7074 250.555 95.6733C251.569 96.6392 252.08 97.9034 252.089 99.4659C252.08 100.839 251.678 102.051 250.882 103.102C250.096 104.144 249.002 104.958 247.601 105.545C246.199 106.133 244.589 106.426 242.771 106.426C240.101 106.426 237.951 105.867 236.322 104.75C234.694 103.623 233.723 102.056 233.411 100.048L238.425 99.5653C238.652 100.55 239.135 101.294 239.874 101.795C240.612 102.297 241.573 102.548 242.757 102.548C243.979 102.548 244.959 102.297 245.697 101.795C246.446 101.294 246.82 100.673 246.82 99.9347C246.82 99.3097 246.578 98.7936 246.095 98.3864C245.622 97.9792 244.883 97.6667 243.879 97.4489L240.158 96.6676C238.065 96.232 236.517 95.4981 235.513 94.4659C234.509 93.4242 234.012 92.108 234.021 90.517C234.012 89.1723 234.376 88.0076 235.115 87.0227C235.863 86.0284 236.9 85.2614 238.226 84.7216C239.561 84.1723 241.1 83.8977 242.842 83.8977C245.399 83.8977 247.411 84.4422 248.879 85.5312C250.357 86.6203 251.27 88.0928 251.621 89.9489Z" fill="#2742F5"/>
<path d="M114.057 134.812V132.545H127.565V134.812H122.119V150H119.494V134.812H114.057ZM130.346 150V136.909H132.894V150H130.346ZM131.633 134.889C131.19 134.889 130.809 134.741 130.491 134.446C130.178 134.145 130.022 133.787 130.022 133.372C130.022 132.952 130.178 132.594 130.491 132.298C130.809 131.997 131.19 131.847 131.633 131.847C132.076 131.847 132.454 131.997 132.766 132.298C133.085 132.594 133.244 132.952 133.244 133.372C133.244 133.787 133.085 134.145 132.766 134.446C132.454 134.741 132.076 134.889 131.633 134.889ZM136.322 150V136.909H138.768V139.04H138.93C139.203 138.318 139.649 137.756 140.268 137.352C140.888 136.943 141.629 136.739 142.493 136.739C143.368 136.739 144.101 136.943 144.692 137.352C145.288 137.761 145.729 138.324 146.013 139.04H146.149C146.462 138.341 146.959 137.784 147.641 137.369C148.322 136.949 149.135 136.739 150.078 136.739C151.266 136.739 152.234 137.111 152.984 137.855C153.74 138.599 154.118 139.722 154.118 141.222V150H151.57V141.46C151.57 140.574 151.328 139.932 150.845 139.534C150.362 139.136 149.786 138.938 149.115 138.938C148.286 138.938 147.641 139.193 147.18 139.705C146.72 140.21 146.49 140.861 146.49 141.656V150H143.95V141.298C143.95 140.588 143.729 140.017 143.286 139.585C142.842 139.153 142.266 138.938 141.555 138.938C141.072 138.938 140.626 139.065 140.217 139.321C139.814 139.571 139.487 139.92 139.237 140.369C138.993 140.818 138.871 141.338 138.871 141.929V150H136.322ZM163.175 150.264C161.886 150.264 160.775 149.989 159.843 149.438C158.917 148.881 158.201 148.099 157.695 147.094C157.195 146.082 156.945 144.898 156.945 143.54C156.945 142.199 157.195 141.017 157.695 139.994C158.201 138.972 158.906 138.173 159.809 137.599C160.718 137.026 161.781 136.739 162.996 136.739C163.735 136.739 164.451 136.861 165.144 137.105C165.837 137.349 166.46 137.733 167.011 138.256C167.562 138.778 167.996 139.457 168.315 140.293C168.633 141.122 168.792 142.131 168.792 143.318V144.222H158.386V142.312H166.295C166.295 141.642 166.158 141.048 165.886 140.531C165.613 140.009 165.229 139.597 164.735 139.295C164.246 138.994 163.673 138.844 163.013 138.844C162.298 138.844 161.673 139.02 161.138 139.372C160.61 139.719 160.201 140.173 159.911 140.736C159.627 141.293 159.485 141.898 159.485 142.551V144.043C159.485 144.918 159.638 145.662 159.945 146.276C160.258 146.889 160.692 147.358 161.249 147.682C161.806 148 162.457 148.159 163.201 148.159C163.684 148.159 164.124 148.091 164.522 147.955C164.92 147.812 165.263 147.602 165.553 147.324C165.843 147.045 166.065 146.702 166.218 146.293L168.63 146.727C168.437 147.437 168.09 148.06 167.59 148.594C167.096 149.122 166.474 149.534 165.724 149.83C164.979 150.119 164.13 150.264 163.175 150.264ZM184.082 136.909V138.955H176.931V136.909H184.082ZM178.849 133.773H181.397V146.156C181.397 146.651 181.471 147.023 181.619 147.273C181.766 147.517 181.957 147.685 182.19 147.776C182.428 147.861 182.687 147.903 182.965 147.903C183.17 147.903 183.349 147.889 183.502 147.861C183.656 147.832 183.775 147.81 183.86 147.793L184.32 149.898C184.173 149.955 183.962 150.011 183.69 150.068C183.417 150.131 183.076 150.165 182.667 150.17C181.996 150.182 181.371 150.062 180.792 149.812C180.212 149.562 179.744 149.176 179.386 148.653C179.028 148.131 178.849 147.474 178.849 146.685V133.773ZM192.274 150.264C191.047 150.264 189.976 149.983 189.061 149.42C188.146 148.858 187.436 148.071 186.93 147.06C186.425 146.048 186.172 144.866 186.172 143.514C186.172 142.156 186.425 140.969 186.93 139.952C187.436 138.935 188.146 138.145 189.061 137.582C189.976 137.02 191.047 136.739 192.274 136.739C193.501 136.739 194.572 137.02 195.487 137.582C196.402 138.145 197.112 138.935 197.618 139.952C198.124 140.969 198.376 142.156 198.376 143.514C198.376 144.866 198.124 146.048 197.618 147.06C197.112 148.071 196.402 148.858 195.487 149.42C194.572 149.983 193.501 150.264 192.274 150.264ZM192.283 148.125C193.078 148.125 193.737 147.915 194.26 147.494C194.783 147.074 195.169 146.514 195.419 145.815C195.675 145.116 195.803 144.347 195.803 143.506C195.803 142.67 195.675 141.903 195.419 141.205C195.169 140.5 194.783 139.935 194.26 139.509C193.737 139.082 193.078 138.869 192.283 138.869C191.482 138.869 190.817 139.082 190.288 139.509C189.766 139.935 189.376 140.5 189.121 141.205C188.871 141.903 188.746 142.67 188.746 143.506C188.746 144.347 188.871 145.116 189.121 145.815C189.376 146.514 189.766 147.074 190.288 147.494C190.817 147.915 191.482 148.125 192.283 148.125ZM207.572 150V136.909H210.036V138.989H210.172C210.411 138.284 210.831 137.73 211.433 137.327C212.041 136.918 212.729 136.713 213.496 136.713C213.655 136.713 213.842 136.719 214.058 136.73C214.28 136.741 214.453 136.756 214.578 136.773V139.21C214.476 139.182 214.294 139.151 214.033 139.116C213.771 139.077 213.51 139.057 213.249 139.057C212.646 139.057 212.109 139.185 211.638 139.44C211.172 139.69 210.803 140.04 210.53 140.489C210.257 140.932 210.121 141.437 210.121 142.006V150H207.572ZM221.957 150.264C220.667 150.264 219.556 149.989 218.624 149.438C217.698 148.881 216.982 148.099 216.477 147.094C215.977 146.082 215.727 144.898 215.727 143.54C215.727 142.199 215.977 141.017 216.477 139.994C216.982 138.972 217.687 138.173 218.59 137.599C219.499 137.026 220.562 136.739 221.778 136.739C222.516 136.739 223.232 136.861 223.925 137.105C224.619 137.349 225.241 137.733 225.792 138.256C226.343 138.778 226.778 139.457 227.096 140.293C227.414 141.122 227.573 142.131 227.573 143.318V144.222H217.167V142.312H225.076C225.076 141.642 224.94 141.048 224.667 140.531C224.394 140.009 224.011 139.597 223.516 139.295C223.028 138.994 222.454 138.844 221.795 138.844C221.079 138.844 220.454 139.02 219.92 139.372C219.391 139.719 218.982 140.173 218.692 140.736C218.408 141.293 218.266 141.898 218.266 142.551V144.043C218.266 144.918 218.42 145.662 218.727 146.276C219.039 146.889 219.474 147.358 220.031 147.682C220.587 148 221.238 148.159 221.982 148.159C222.465 148.159 222.906 148.091 223.303 147.955C223.701 147.812 224.045 147.602 224.335 147.324C224.624 147.045 224.846 146.702 224.999 146.293L227.411 146.727C227.218 147.437 226.871 148.06 226.371 148.594C225.877 149.122 225.255 149.534 224.505 149.83C223.761 150.119 222.911 150.264 221.957 150.264ZM240.21 140.105L237.901 140.514C237.804 140.219 237.651 139.937 237.44 139.67C237.236 139.403 236.957 139.185 236.605 139.014C236.253 138.844 235.813 138.759 235.284 138.759C234.563 138.759 233.96 138.92 233.477 139.244C232.994 139.562 232.753 139.974 232.753 140.48C232.753 140.918 232.915 141.27 233.239 141.537C233.563 141.804 234.085 142.023 234.807 142.193L236.886 142.67C238.091 142.949 238.989 143.378 239.58 143.957C240.17 144.537 240.466 145.29 240.466 146.216C240.466 147 240.239 147.699 239.784 148.312C239.335 148.92 238.707 149.398 237.901 149.744C237.099 150.091 236.17 150.264 235.114 150.264C233.648 150.264 232.452 149.952 231.526 149.327C230.599 148.696 230.031 147.801 229.821 146.642L232.284 146.267C232.438 146.909 232.753 147.395 233.23 147.724C233.707 148.048 234.33 148.21 235.097 148.21C235.932 148.21 236.599 148.037 237.099 147.69C237.599 147.338 237.849 146.909 237.849 146.403C237.849 145.994 237.696 145.651 237.389 145.372C237.088 145.094 236.625 144.884 236 144.741L233.784 144.256C232.563 143.977 231.659 143.534 231.074 142.926C230.494 142.318 230.205 141.548 230.205 140.616C230.205 139.844 230.42 139.168 230.852 138.588C231.284 138.009 231.881 137.557 232.642 137.233C233.403 136.903 234.276 136.739 235.259 136.739C236.673 136.739 237.787 137.045 238.599 137.659C239.412 138.267 239.949 139.082 240.21 140.105ZM248.782 150.264C247.555 150.264 246.484 149.983 245.569 149.42C244.654 148.858 243.944 148.071 243.438 147.06C242.933 146.048 242.68 144.866 242.68 143.514C242.68 142.156 242.933 140.969 243.438 139.952C243.944 138.935 244.654 138.145 245.569 137.582C246.484 137.02 247.555 136.739 248.782 136.739C250.009 136.739 251.08 137.02 251.995 137.582C252.91 138.145 253.62 138.935 254.126 139.952C254.631 140.969 254.884 142.156 254.884 143.514C254.884 144.866 254.631 146.048 254.126 147.06C253.62 148.071 252.91 148.858 251.995 149.42C251.08 149.983 250.009 150.264 248.782 150.264ZM248.79 148.125C249.586 148.125 250.245 147.915 250.768 147.494C251.29 147.074 251.677 146.514 251.927 145.815C252.183 145.116 252.31 144.347 252.31 143.506C252.31 142.67 252.183 141.903 251.927 141.205C251.677 140.5 251.29 139.935 250.768 139.509C250.245 139.082 249.586 138.869 248.79 138.869C247.989 138.869 247.325 139.082 246.796 139.509C246.273 139.935 245.884 140.5 245.629 141.205C245.379 141.903 245.254 142.67 245.254 143.506C245.254 144.347 245.379 145.116 245.629 145.815C245.884 146.514 246.273 147.074 246.796 147.494C247.325 147.915 247.989 148.125 248.79 148.125ZM260.277 132.545V150H257.729V132.545H260.277ZM271.998 144.571V136.909H274.555V150H272.049V147.733H271.913C271.612 148.432 271.129 149.014 270.464 149.48C269.805 149.94 268.984 150.17 268.001 150.17C267.16 150.17 266.415 149.986 265.768 149.616C265.126 149.241 264.62 148.688 264.251 147.955C263.887 147.222 263.705 146.315 263.705 145.236V136.909H266.254V144.929C266.254 145.821 266.501 146.531 266.995 147.06C267.489 147.588 268.131 147.852 268.921 147.852C269.398 147.852 269.873 147.733 270.344 147.494C270.822 147.256 271.217 146.895 271.529 146.412C271.847 145.929 272.004 145.315 271.998 144.571ZM284.089 136.909V138.955H276.939V136.909H284.089ZM278.857 133.773H281.405V146.156C281.405 146.651 281.479 147.023 281.626 147.273C281.774 147.517 281.964 147.685 282.197 147.776C282.436 147.861 282.695 147.903 282.973 147.903C283.178 147.903 283.357 147.889 283.51 147.861C283.663 147.832 283.783 147.81 283.868 147.793L284.328 149.898C284.18 149.955 283.97 150.011 283.697 150.068C283.425 150.131 283.084 150.165 282.675 150.17C282.004 150.182 281.379 150.062 280.8 149.812C280.22 149.562 279.751 149.176 279.393 148.653C279.036 148.131 278.857 147.474 278.857 146.685V133.773ZM286.908 150V136.909H289.457V150H286.908ZM288.195 134.889C287.752 134.889 287.371 134.741 287.053 134.446C286.741 134.145 286.585 133.787 286.585 133.372C286.585 132.952 286.741 132.594 287.053 132.298C287.371 131.997 287.752 131.847 288.195 131.847C288.638 131.847 289.016 131.997 289.329 132.298C289.647 132.594 289.806 132.952 289.806 133.372C289.806 133.787 289.647 134.145 289.329 134.446C289.016 134.741 288.638 134.889 288.195 134.889ZM298.399 150.264C297.172 150.264 296.101 149.983 295.186 149.42C294.271 148.858 293.561 148.071 293.055 147.06C292.55 146.048 292.297 144.866 292.297 143.514C292.297 142.156 292.55 140.969 293.055 139.952C293.561 138.935 294.271 138.145 295.186 137.582C296.101 137.02 297.172 136.739 298.399 136.739C299.626 136.739 300.697 137.02 301.612 137.582C302.527 138.145 303.237 138.935 303.743 139.952C304.249 140.969 304.501 142.156 304.501 143.514C304.501 144.866 304.249 146.048 303.743 147.06C303.237 148.071 302.527 148.858 301.612 149.42C300.697 149.983 299.626 150.264 298.399 150.264ZM298.408 148.125C299.203 148.125 299.862 147.915 300.385 147.494C300.908 147.074 301.294 146.514 301.544 145.815C301.8 145.116 301.928 144.347 301.928 143.506C301.928 142.67 301.8 141.903 301.544 141.205C301.294 140.5 300.908 139.935 300.385 139.509C299.862 139.082 299.203 138.869 298.408 138.869C297.607 138.869 296.942 139.082 296.413 139.509C295.891 139.935 295.501 140.5 295.246 141.205C294.996 141.903 294.871 142.67 294.871 143.506C294.871 144.347 294.996 145.116 295.246 145.815C295.501 146.514 295.891 147.074 296.413 147.494C296.942 147.915 297.607 148.125 298.408 148.125ZM309.894 142.227V150H307.346V136.909H309.792V139.04H309.954C310.255 138.347 310.727 137.79 311.369 137.369C312.016 136.949 312.832 136.739 313.815 136.739C314.707 136.739 315.488 136.926 316.158 137.301C316.829 137.67 317.349 138.222 317.718 138.955C318.087 139.687 318.272 140.594 318.272 141.673V150H315.724V141.98C315.724 141.031 315.477 140.29 314.982 139.756C314.488 139.216 313.809 138.946 312.945 138.946C312.354 138.946 311.829 139.074 311.369 139.33C310.914 139.585 310.553 139.96 310.286 140.455C310.025 140.943 309.894 141.534 309.894 142.227Z" fill="black"/>
</svg>
