<svg width="433" height="192" viewBox="0 0 433 192" fill="none" xmlns="http://www.w3.org/2000/svg">
<rect x="0.5" y="0.5" width="432" height="191" rx="9.5" fill="#2742F5" fill-opacity="0.1" stroke="#2742F5"/>
<path d="M185.685 76.5114C187.077 76.5208 188.431 76.767 189.747 77.25C191.073 77.7235 192.266 78.5 193.327 79.5795C194.387 80.6496 195.23 82.0843 195.855 83.8835C196.48 85.6828 196.793 87.9081 196.793 90.5597C196.802 93.0597 196.537 95.2945 195.997 97.2642C195.467 99.2244 194.705 100.882 193.71 102.236C192.716 103.59 191.518 104.622 190.116 105.332C188.715 106.043 187.138 106.398 185.386 106.398C183.549 106.398 181.92 106.038 180.5 105.318C179.089 104.598 177.948 103.614 177.077 102.364C176.205 101.114 175.67 99.6837 175.472 98.0739H180.656C180.921 99.2292 181.461 100.148 182.276 100.83C183.099 101.502 184.136 101.838 185.386 101.838C187.403 101.838 188.956 100.962 190.045 99.2102C191.134 97.4583 191.679 95.0246 191.679 91.9091H191.48C191.016 92.7424 190.415 93.4621 189.676 94.0682C188.938 94.6648 188.099 95.1241 187.162 95.446C186.234 95.768 185.249 95.929 184.207 95.929C182.503 95.929 180.969 95.5218 179.605 94.7074C178.251 93.893 177.176 92.7756 176.381 91.3551C175.595 89.9347 175.197 88.3106 175.188 86.483C175.188 84.589 175.623 82.8892 176.494 81.3835C177.375 79.8684 178.601 78.6752 180.173 77.804C181.745 76.9233 183.582 76.4924 185.685 76.5114ZM185.699 80.7727C184.676 80.7727 183.753 81.0237 182.929 81.5256C182.115 82.018 181.471 82.6903 180.997 83.5426C180.533 84.3854 180.301 85.3277 180.301 86.3693C180.311 87.4015 180.543 88.339 180.997 89.1818C181.461 90.0246 182.091 90.6922 182.886 91.1847C183.691 91.6771 184.61 91.9233 185.642 91.9233C186.409 91.9233 187.124 91.7765 187.787 91.483C188.45 91.1894 189.027 90.7822 189.52 90.2614C190.022 89.7311 190.41 89.1297 190.685 88.4574C190.969 87.785 191.106 87.0748 191.097 86.3267C191.097 85.3324 190.86 84.4138 190.386 83.571C189.922 82.7282 189.283 82.0511 188.469 81.5398C187.664 81.0284 186.741 80.7727 185.699 80.7727ZM212.276 106.554C209.937 106.554 207.929 105.962 206.253 104.778C204.586 103.585 203.303 101.866 202.403 99.6222C201.513 97.3684 201.068 94.6553 201.068 91.483C201.078 88.3106 201.527 85.6117 202.418 83.3864C203.317 81.1515 204.6 79.447 206.267 78.2727C207.943 77.0985 209.946 76.5114 212.276 76.5114C214.605 76.5114 216.608 77.0985 218.284 78.2727C219.96 79.447 221.243 81.1515 222.134 83.3864C223.033 85.6212 223.483 88.3201 223.483 91.483C223.483 94.6648 223.033 97.3826 222.134 99.6364C221.243 101.881 219.96 103.595 218.284 104.778C216.617 105.962 214.615 106.554 212.276 106.554ZM212.276 102.108C214.094 102.108 215.528 101.213 216.58 99.4233C217.64 97.6241 218.17 94.9773 218.17 91.483C218.17 89.1723 217.929 87.2311 217.446 85.6591C216.963 84.0871 216.281 82.9034 215.401 82.108C214.52 81.303 213.478 80.9006 212.276 80.9006C210.467 80.9006 209.037 81.8002 207.986 83.5994C206.935 85.3892 206.404 88.017 206.395 91.483C206.385 93.803 206.617 95.7538 207.091 97.3352C207.574 98.9167 208.256 100.11 209.136 100.915C210.017 101.71 211.063 102.108 212.276 102.108ZM243.756 100.545V99.0114C243.756 97.8845 243.993 96.8475 244.467 95.9006C244.95 94.9536 245.65 94.1913 246.569 93.6136C247.487 93.036 248.6 92.7472 249.907 92.7472C251.252 92.7472 252.379 93.036 253.288 93.6136C254.197 94.1818 254.883 94.9394 255.347 95.8864C255.821 96.8333 256.058 97.875 256.058 99.0114V100.545C256.058 101.672 255.821 102.709 255.347 103.656C254.874 104.603 254.178 105.366 253.259 105.943C252.35 106.521 251.233 106.81 249.907 106.81C248.581 106.81 247.459 106.521 246.54 105.943C245.622 105.366 244.926 104.603 244.452 103.656C243.988 102.709 243.756 101.672 243.756 100.545ZM247.464 99.0114V100.545C247.464 101.294 247.644 101.98 248.004 102.605C248.363 103.23 248.998 103.543 249.907 103.543C250.826 103.543 251.455 103.235 251.796 102.619C252.147 101.994 252.322 101.303 252.322 100.545V99.0114C252.322 98.2538 252.156 97.5625 251.825 96.9375C251.493 96.303 250.854 95.9858 249.907 95.9858C249.017 95.9858 248.387 96.303 248.018 96.9375C247.648 97.5625 247.464 98.2538 247.464 99.0114ZM228.969 83.8977V82.3636C228.969 81.2273 229.211 80.1856 229.694 79.2386C230.177 78.2917 230.878 77.5341 231.796 76.9659C232.715 76.3883 233.827 76.0994 235.134 76.0994C236.469 76.0994 237.592 76.3883 238.501 76.9659C239.419 77.5341 240.111 78.2917 240.575 79.2386C241.039 80.1856 241.271 81.2273 241.271 82.3636V83.8977C241.271 85.0341 241.034 86.0758 240.56 87.0227C240.096 87.9602 239.405 88.7131 238.487 89.2812C237.568 89.8494 236.451 90.1335 235.134 90.1335C233.799 90.1335 232.672 89.8494 231.754 89.2812C230.844 88.7131 230.153 87.9555 229.68 87.0085C229.206 86.0616 228.969 85.0246 228.969 83.8977ZM232.705 82.3636V83.8977C232.705 84.6553 232.88 85.3466 233.231 85.9716C233.591 86.5871 234.225 86.8949 235.134 86.8949C236.043 86.8949 236.668 86.5871 237.009 85.9716C237.36 85.3466 237.535 84.6553 237.535 83.8977V82.3636C237.535 81.6061 237.369 80.9148 237.038 80.2898C236.706 79.6553 236.072 79.3381 235.134 79.3381C234.235 79.3381 233.605 79.6553 233.245 80.2898C232.885 80.9242 232.705 81.6155 232.705 82.3636ZM230.589 106L250.589 76.9091H254.14L234.14 106H230.589Z" fill="#2742F5"/>
<path d="M92.9176 150V132.545H103.861V134.812H95.5511V140.131H103.29V142.389H95.5511V147.733H103.963V150H92.9176ZM107.174 150V136.909H109.62V139.04H109.782C110.055 138.318 110.501 137.756 111.12 137.352C111.739 136.943 112.481 136.739 113.344 136.739C114.219 136.739 114.952 136.943 115.543 137.352C116.14 137.761 116.58 138.324 116.864 139.04H117.001C117.313 138.341 117.81 137.784 118.492 137.369C119.174 136.949 119.987 136.739 120.93 136.739C122.117 136.739 123.086 137.111 123.836 137.855C124.592 138.599 124.969 139.722 124.969 141.222V150H122.421V141.46C122.421 140.574 122.18 139.932 121.697 139.534C121.214 139.136 120.637 138.938 119.967 138.938C119.137 138.938 118.492 139.193 118.032 139.705C117.572 140.21 117.342 140.861 117.342 141.656V150H114.802V141.298C114.802 140.588 114.58 140.017 114.137 139.585C113.694 139.153 113.117 138.938 112.407 138.938C111.924 138.938 111.478 139.065 111.069 139.321C110.665 139.571 110.339 139.92 110.089 140.369C109.844 140.818 109.722 141.338 109.722 141.929V150H107.174ZM128.385 154.909V136.909H130.874V139.031H131.087C131.234 138.759 131.447 138.443 131.726 138.085C132.004 137.727 132.391 137.415 132.885 137.148C133.379 136.875 134.033 136.739 134.845 136.739C135.902 136.739 136.845 137.006 137.675 137.54C138.504 138.074 139.155 138.844 139.626 139.849C140.104 140.855 140.342 142.065 140.342 143.48C140.342 144.895 140.107 146.108 139.635 147.119C139.163 148.125 138.516 148.901 137.692 149.446C136.868 149.986 135.928 150.256 134.871 150.256C134.075 150.256 133.425 150.122 132.919 149.855C132.419 149.588 132.027 149.276 131.743 148.918C131.459 148.56 131.24 148.241 131.087 147.963H130.933V154.909H128.385ZM130.882 143.455C130.882 144.375 131.016 145.182 131.283 145.875C131.55 146.568 131.936 147.111 132.442 147.503C132.947 147.889 133.567 148.082 134.3 148.082C135.061 148.082 135.697 147.881 136.209 147.477C136.72 147.068 137.107 146.514 137.368 145.815C137.635 145.116 137.768 144.33 137.768 143.455C137.768 142.591 137.638 141.815 137.376 141.128C137.121 140.44 136.734 139.898 136.217 139.5C135.706 139.102 135.067 138.903 134.3 138.903C133.561 138.903 132.936 139.094 132.425 139.474C131.919 139.855 131.536 140.386 131.274 141.068C131.013 141.75 130.882 142.545 130.882 143.455ZM145.746 132.545V150H143.197V132.545H145.746ZM154.688 150.264C153.461 150.264 152.39 149.983 151.475 149.42C150.56 148.858 149.85 148.071 149.344 147.06C148.839 146.048 148.586 144.866 148.586 143.514C148.586 142.156 148.839 140.969 149.344 139.952C149.85 138.935 150.56 138.145 151.475 137.582C152.39 137.02 153.461 136.739 154.688 136.739C155.915 136.739 156.987 137.02 157.901 137.582C158.816 138.145 159.526 138.935 160.032 139.952C160.538 140.969 160.79 142.156 160.79 143.514C160.79 144.866 160.538 146.048 160.032 147.06C159.526 148.071 158.816 148.858 157.901 149.42C156.987 149.983 155.915 150.264 154.688 150.264ZM154.697 148.125C155.492 148.125 156.151 147.915 156.674 147.494C157.197 147.074 157.583 146.514 157.833 145.815C158.089 145.116 158.217 144.347 158.217 143.506C158.217 142.67 158.089 141.903 157.833 141.205C157.583 140.5 157.197 139.935 156.674 139.509C156.151 139.082 155.492 138.869 154.697 138.869C153.896 138.869 153.231 139.082 152.702 139.509C152.18 139.935 151.79 140.5 151.535 141.205C151.285 141.903 151.16 142.67 151.16 143.506C151.16 144.347 151.285 145.116 151.535 145.815C151.79 146.514 152.18 147.074 152.702 147.494C153.231 147.915 153.896 148.125 154.697 148.125ZM164.8 154.909C164.42 154.909 164.073 154.878 163.761 154.815C163.448 154.759 163.215 154.696 163.062 154.628L163.675 152.54C164.141 152.665 164.556 152.719 164.92 152.702C165.283 152.685 165.604 152.548 165.883 152.293C166.167 152.037 166.417 151.619 166.633 151.04L166.948 150.17L162.158 136.909H164.886L168.201 147.068H168.337L171.653 136.909H174.388L168.994 151.747C168.744 152.429 168.425 153.006 168.039 153.477C167.653 153.955 167.192 154.313 166.658 154.551C166.124 154.79 165.505 154.909 164.8 154.909ZM181.98 150.264C180.69 150.264 179.58 149.989 178.648 149.438C177.722 148.881 177.006 148.099 176.5 147.094C176 146.082 175.75 144.898 175.75 143.54C175.75 142.199 176 141.017 176.5 139.994C177.006 138.972 177.71 138.173 178.614 137.599C179.523 137.026 180.585 136.739 181.801 136.739C182.54 136.739 183.256 136.861 183.949 137.105C184.642 137.349 185.264 137.733 185.815 138.256C186.366 138.778 186.801 139.457 187.119 140.293C187.438 141.122 187.597 142.131 187.597 143.318V144.222H177.19V142.312H185.099C185.099 141.642 184.963 141.048 184.69 140.531C184.418 140.009 184.034 139.597 183.54 139.295C183.051 138.994 182.477 138.844 181.818 138.844C181.102 138.844 180.477 139.02 179.943 139.372C179.415 139.719 179.006 140.173 178.716 140.736C178.432 141.293 178.29 141.898 178.29 142.551V144.043C178.29 144.918 178.443 145.662 178.75 146.276C179.062 146.889 179.497 147.358 180.054 147.682C180.611 148 181.261 148.159 182.006 148.159C182.489 148.159 182.929 148.091 183.327 147.955C183.724 147.812 184.068 147.602 184.358 147.324C184.648 147.045 184.869 146.702 185.023 146.293L187.435 146.727C187.241 147.437 186.895 148.06 186.395 148.594C185.901 149.122 185.278 149.534 184.528 149.83C183.784 150.119 182.935 150.264 181.98 150.264ZM196.066 150.264C194.776 150.264 193.665 149.989 192.734 149.438C191.808 148.881 191.092 148.099 190.586 147.094C190.086 146.082 189.836 144.898 189.836 143.54C189.836 142.199 190.086 141.017 190.586 139.994C191.092 138.972 191.796 138.173 192.7 137.599C193.609 137.026 194.671 136.739 195.887 136.739C196.626 136.739 197.342 136.861 198.035 137.105C198.728 137.349 199.35 137.733 199.901 138.256C200.452 138.778 200.887 139.457 201.205 140.293C201.523 141.122 201.683 142.131 201.683 143.318V144.222H191.276V142.312H199.185C199.185 141.642 199.049 141.048 198.776 140.531C198.504 140.009 198.12 139.597 197.626 139.295C197.137 138.994 196.563 138.844 195.904 138.844C195.188 138.844 194.563 139.02 194.029 139.372C193.501 139.719 193.092 140.173 192.802 140.736C192.518 141.293 192.376 141.898 192.376 142.551V144.043C192.376 144.918 192.529 145.662 192.836 146.276C193.148 146.889 193.583 147.358 194.14 147.682C194.697 148 195.347 148.159 196.092 148.159C196.575 148.159 197.015 148.091 197.413 147.955C197.81 147.812 198.154 147.602 198.444 147.324C198.734 147.045 198.955 146.702 199.109 146.293L201.521 146.727C201.327 147.437 200.981 148.06 200.481 148.594C199.987 149.122 199.364 149.534 198.614 149.83C197.87 150.119 197.021 150.264 196.066 150.264ZM220.671 140.105L218.362 140.514C218.265 140.219 218.112 139.937 217.901 139.67C217.697 139.403 217.418 139.185 217.066 139.014C216.714 138.844 216.273 138.759 215.745 138.759C215.023 138.759 214.421 138.92 213.938 139.244C213.455 139.562 213.214 139.974 213.214 140.48C213.214 140.918 213.376 141.27 213.7 141.537C214.023 141.804 214.546 142.023 215.268 142.193L217.347 142.67C218.552 142.949 219.45 143.378 220.04 143.957C220.631 144.537 220.927 145.29 220.927 146.216C220.927 147 220.7 147.699 220.245 148.312C219.796 148.92 219.168 149.398 218.362 149.744C217.56 150.091 216.631 150.264 215.575 150.264C214.109 150.264 212.913 149.952 211.987 149.327C211.06 148.696 210.492 147.801 210.282 146.642L212.745 146.267C212.898 146.909 213.214 147.395 213.691 147.724C214.168 148.048 214.79 148.21 215.558 148.21C216.393 148.21 217.06 148.037 217.56 147.69C218.06 147.338 218.31 146.909 218.31 146.403C218.31 145.994 218.157 145.651 217.85 145.372C217.549 145.094 217.086 144.884 216.461 144.741L214.245 144.256C213.023 143.977 212.12 143.534 211.535 142.926C210.955 142.318 210.665 141.548 210.665 140.616C210.665 139.844 210.881 139.168 211.313 138.588C211.745 138.009 212.342 137.557 213.103 137.233C213.864 136.903 214.737 136.739 215.719 136.739C217.134 136.739 218.248 137.045 219.06 137.659C219.873 138.267 220.41 139.082 220.671 140.105ZM227.538 150.29C226.709 150.29 225.959 150.136 225.288 149.83C224.618 149.517 224.087 149.065 223.695 148.474C223.308 147.884 223.115 147.159 223.115 146.301C223.115 145.562 223.257 144.955 223.541 144.477C223.825 144 224.209 143.622 224.692 143.344C225.175 143.065 225.714 142.855 226.311 142.713C226.908 142.571 227.516 142.463 228.135 142.389C228.919 142.298 229.555 142.224 230.044 142.168C230.533 142.105 230.888 142.006 231.109 141.869C231.331 141.733 231.442 141.511 231.442 141.205V141.145C231.442 140.401 231.232 139.824 230.811 139.415C230.396 139.006 229.777 138.801 228.953 138.801C228.095 138.801 227.419 138.991 226.925 139.372C226.436 139.747 226.098 140.165 225.911 140.625L223.516 140.08C223.8 139.284 224.214 138.642 224.76 138.153C225.311 137.659 225.945 137.301 226.661 137.08C227.376 136.852 228.129 136.739 228.919 136.739C229.442 136.739 229.996 136.801 230.581 136.926C231.172 137.045 231.723 137.267 232.234 137.591C232.751 137.915 233.175 138.378 233.504 138.98C233.834 139.577 233.999 140.352 233.999 141.307V150H231.51V148.21H231.408C231.243 148.54 230.996 148.864 230.666 149.182C230.337 149.5 229.913 149.764 229.396 149.974C228.879 150.185 228.26 150.29 227.538 150.29ZM228.092 148.244C228.797 148.244 229.399 148.105 229.899 147.827C230.405 147.548 230.788 147.185 231.05 146.736C231.317 146.281 231.45 145.795 231.45 145.278V143.591C231.359 143.682 231.183 143.767 230.922 143.847C230.666 143.92 230.374 143.986 230.044 144.043C229.714 144.094 229.393 144.142 229.081 144.188C228.768 144.227 228.507 144.261 228.297 144.29C227.803 144.352 227.351 144.457 226.942 144.605C226.538 144.753 226.214 144.966 225.97 145.244C225.732 145.517 225.612 145.881 225.612 146.335C225.612 146.966 225.845 147.443 226.311 147.767C226.777 148.085 227.371 148.244 228.092 148.244ZM243.504 136.909V138.955H236.353V136.909H243.504ZM238.271 133.773H240.819V146.156C240.819 146.651 240.893 147.023 241.04 147.273C241.188 147.517 241.379 147.685 241.612 147.776C241.85 147.861 242.109 147.903 242.387 147.903C242.592 147.903 242.771 147.889 242.924 147.861C243.077 147.832 243.197 147.81 243.282 147.793L243.742 149.898C243.594 149.955 243.384 150.011 243.112 150.068C242.839 150.131 242.498 150.165 242.089 150.17C241.418 150.182 240.793 150.062 240.214 149.812C239.634 149.562 239.165 149.176 238.808 148.653C238.45 148.131 238.271 147.474 238.271 146.685V133.773ZM246.322 150V136.909H248.871V150H246.322ZM247.609 134.889C247.166 134.889 246.786 134.741 246.467 134.446C246.155 134.145 245.999 133.787 245.999 133.372C245.999 132.952 246.155 132.594 246.467 132.298C246.786 131.997 247.166 131.847 247.609 131.847C248.053 131.847 248.43 131.997 248.743 132.298C249.061 132.594 249.22 132.952 249.22 133.372C249.22 133.787 249.061 134.145 248.743 134.446C248.43 134.741 248.053 134.889 247.609 134.889ZM262.109 140.105L259.799 140.514C259.702 140.219 259.549 139.937 259.339 139.67C259.134 139.403 258.856 139.185 258.504 139.014C258.151 138.844 257.711 138.759 257.183 138.759C256.461 138.759 255.859 138.92 255.376 139.244C254.893 139.562 254.651 139.974 254.651 140.48C254.651 140.918 254.813 141.27 255.137 141.537C255.461 141.804 255.984 142.023 256.705 142.193L258.785 142.67C259.989 142.949 260.887 143.378 261.478 143.957C262.069 144.537 262.364 145.29 262.364 146.216C262.364 147 262.137 147.699 261.683 148.312C261.234 148.92 260.606 149.398 259.799 149.744C258.998 150.091 258.069 150.264 257.012 150.264C255.546 150.264 254.35 149.952 253.424 149.327C252.498 148.696 251.93 147.801 251.719 146.642L254.183 146.267C254.336 146.909 254.651 147.395 255.129 147.724C255.606 148.048 256.228 148.21 256.995 148.21C257.83 148.21 258.498 148.037 258.998 147.69C259.498 147.338 259.748 146.909 259.748 146.403C259.748 145.994 259.594 145.651 259.288 145.372C258.987 145.094 258.523 144.884 257.898 144.741L255.683 144.256C254.461 143.977 253.558 143.534 252.972 142.926C252.393 142.318 252.103 141.548 252.103 140.616C252.103 139.844 252.319 139.168 252.751 138.588C253.183 138.009 253.779 137.557 254.54 137.233C255.302 136.903 256.174 136.739 257.157 136.739C258.572 136.739 259.685 137.045 260.498 137.659C261.31 138.267 261.847 139.082 262.109 140.105ZM271.396 136.909V138.955H263.999V136.909H271.396ZM266.027 150V135.392C266.027 134.574 266.206 133.895 266.564 133.355C266.922 132.81 267.396 132.403 267.987 132.136C268.578 131.864 269.22 131.727 269.913 131.727C270.425 131.727 270.862 131.77 271.226 131.855C271.589 131.935 271.859 132.009 272.036 132.077L271.439 134.139C271.32 134.105 271.166 134.065 270.979 134.02C270.791 133.969 270.564 133.943 270.297 133.943C269.678 133.943 269.234 134.097 268.967 134.403C268.706 134.71 268.575 135.153 268.575 135.733V150H266.027ZM277.437 150.29C276.607 150.29 275.857 150.136 275.187 149.83C274.516 149.517 273.985 149.065 273.593 148.474C273.207 147.884 273.013 147.159 273.013 146.301C273.013 145.562 273.156 144.955 273.44 144.477C273.724 144 274.107 143.622 274.59 143.344C275.073 143.065 275.613 142.855 276.21 142.713C276.806 142.571 277.414 142.463 278.033 142.389C278.817 142.298 279.454 142.224 279.942 142.168C280.431 142.105 280.786 142.006 281.008 141.869C281.229 141.733 281.34 141.511 281.34 141.205V141.145C281.34 140.401 281.13 139.824 280.71 139.415C280.295 139.006 279.675 138.801 278.852 138.801C277.994 138.801 277.317 138.991 276.823 139.372C276.335 139.747 275.996 140.165 275.809 140.625L273.414 140.08C273.698 139.284 274.113 138.642 274.658 138.153C275.21 137.659 275.843 137.301 276.559 137.08C277.275 136.852 278.028 136.739 278.817 136.739C279.34 136.739 279.894 136.801 280.479 136.926C281.07 137.045 281.621 137.267 282.133 137.591C282.65 137.915 283.073 138.378 283.403 138.98C283.732 139.577 283.897 140.352 283.897 141.307V150H281.408V148.21H281.306C281.141 148.54 280.894 148.864 280.565 149.182C280.235 149.5 279.812 149.764 279.295 149.974C278.778 150.185 278.158 150.29 277.437 150.29ZM277.991 148.244C278.695 148.244 279.298 148.105 279.798 147.827C280.303 147.548 280.687 147.185 280.948 146.736C281.215 146.281 281.349 145.795 281.349 145.278V143.591C281.258 143.682 281.082 143.767 280.82 143.847C280.565 143.92 280.272 143.986 279.942 144.043C279.613 144.094 279.292 144.142 278.979 144.188C278.667 144.227 278.406 144.261 278.195 144.29C277.701 144.352 277.249 144.457 276.84 144.605C276.437 144.753 276.113 144.966 275.869 145.244C275.63 145.517 275.511 145.881 275.511 146.335C275.511 146.966 275.744 147.443 276.21 147.767C276.675 148.085 277.269 148.244 277.991 148.244ZM292.805 150.264C291.538 150.264 290.447 149.977 289.533 149.403C288.624 148.824 287.925 148.026 287.436 147.009C286.947 145.991 286.703 144.827 286.703 143.514C286.703 142.185 286.953 141.011 287.453 139.994C287.953 138.972 288.658 138.173 289.567 137.599C290.476 137.026 291.547 136.739 292.78 136.739C293.774 136.739 294.661 136.923 295.439 137.293C296.217 137.656 296.845 138.168 297.322 138.827C297.805 139.486 298.092 140.256 298.183 141.136H295.703C295.567 140.523 295.254 139.994 294.766 139.551C294.283 139.108 293.635 138.886 292.822 138.886C292.112 138.886 291.49 139.074 290.956 139.449C290.428 139.818 290.016 140.347 289.72 141.034C289.425 141.716 289.277 142.523 289.277 143.455C289.277 144.409 289.422 145.233 289.712 145.926C290.001 146.619 290.411 147.156 290.939 147.537C291.473 147.918 292.101 148.108 292.822 148.108C293.305 148.108 293.743 148.02 294.135 147.844C294.533 147.662 294.865 147.403 295.132 147.068C295.405 146.733 295.595 146.33 295.703 145.858H298.183C298.092 146.705 297.817 147.46 297.357 148.125C296.896 148.79 296.28 149.312 295.507 149.693C294.74 150.074 293.839 150.264 292.805 150.264ZM307.019 136.909V138.955H299.869V136.909H307.019ZM301.786 133.773H304.335V146.156C304.335 146.651 304.408 147.023 304.556 147.273C304.704 147.517 304.894 147.685 305.127 147.776C305.366 147.861 305.624 147.903 305.903 147.903C306.107 147.903 306.286 147.889 306.44 147.861C306.593 147.832 306.712 147.81 306.798 147.793L307.258 149.898C307.11 149.955 306.9 150.011 306.627 150.068C306.354 150.131 306.013 150.165 305.604 150.17C304.934 150.182 304.309 150.062 303.729 149.812C303.15 149.562 302.681 149.176 302.323 148.653C301.965 148.131 301.786 147.474 301.786 146.685V133.773ZM309.838 150V136.909H312.386V150H309.838ZM311.125 134.889C310.682 134.889 310.301 134.741 309.983 134.446C309.67 134.145 309.514 133.787 309.514 133.372C309.514 132.952 309.67 132.594 309.983 132.298C310.301 131.997 310.682 131.847 311.125 131.847C311.568 131.847 311.946 131.997 312.259 132.298C312.577 132.594 312.736 132.952 312.736 133.372C312.736 133.787 312.577 134.145 312.259 134.446C311.946 134.741 311.568 134.889 311.125 134.889ZM321.329 150.264C320.102 150.264 319.031 149.983 318.116 149.42C317.201 148.858 316.491 148.071 315.985 147.06C315.479 146.048 315.227 144.866 315.227 143.514C315.227 142.156 315.479 140.969 315.985 139.952C316.491 138.935 317.201 138.145 318.116 137.582C319.031 137.02 320.102 136.739 321.329 136.739C322.556 136.739 323.627 137.02 324.542 137.582C325.457 138.145 326.167 138.935 326.673 139.952C327.178 140.969 327.431 142.156 327.431 143.514C327.431 144.866 327.178 146.048 326.673 147.06C326.167 148.071 325.457 148.858 324.542 149.42C323.627 149.983 322.556 150.264 321.329 150.264ZM321.337 148.125C322.133 148.125 322.792 147.915 323.315 147.494C323.837 147.074 324.224 146.514 324.474 145.815C324.729 145.116 324.857 144.347 324.857 143.506C324.857 142.67 324.729 141.903 324.474 141.205C324.224 140.5 323.837 139.935 323.315 139.509C322.792 139.082 322.133 138.869 321.337 138.869C320.536 138.869 319.871 139.082 319.343 139.509C318.82 139.935 318.431 140.5 318.175 141.205C317.925 141.903 317.8 142.67 317.8 143.506C317.8 144.347 317.925 145.116 318.175 145.815C318.431 146.514 318.82 147.074 319.343 147.494C319.871 147.915 320.536 148.125 321.337 148.125ZM332.824 142.227V150H330.276V136.909H332.722V139.04H332.884C333.185 138.347 333.656 137.79 334.298 137.369C334.946 136.949 335.761 136.739 336.744 136.739C337.636 136.739 338.418 136.926 339.088 137.301C339.759 137.67 340.278 138.222 340.648 138.955C341.017 139.687 341.202 140.594 341.202 141.673V150H338.653V141.98C338.653 141.031 338.406 140.29 337.912 139.756C337.418 139.216 336.739 138.946 335.875 138.946C335.284 138.946 334.759 139.074 334.298 139.33C333.844 139.585 333.483 139.96 333.216 140.455C332.955 140.943 332.824 141.534 332.824 142.227Z" fill="black"/>
</svg>
