<svg width="433" height="192" viewBox="0 0 433 192" fill="none" xmlns="http://www.w3.org/2000/svg">
<rect x="0.5" y="0.5" width="432" height="191" rx="9.5" fill="#2742F5" fill-opacity="0.1" stroke="#2742F5"/>
<path d="M203.418 70.9091V100H198.148V76.0369H197.977L191.173 80.3835V75.554L198.403 70.9091H203.418ZM212.427 100.312C211.565 100.312 210.826 100.009 210.211 99.4034C209.595 98.7973 209.292 98.0587 209.302 97.1875C209.292 96.3352 209.595 95.6061 210.211 95C210.826 94.3939 211.565 94.0909 212.427 94.0909C213.26 94.0909 213.985 94.3939 214.6 95C215.225 95.6061 215.542 96.3352 215.552 97.1875C215.542 97.7652 215.391 98.2907 215.097 98.7642C214.813 99.2377 214.434 99.6165 213.961 99.9006C213.497 100.175 212.986 100.312 212.427 100.312ZM230.268 100.398C228.222 100.398 226.404 100.047 224.813 99.3466C223.232 98.6458 221.982 97.6705 221.063 96.4205C220.145 95.1705 219.657 93.7263 219.6 92.0881H224.941C224.988 92.8741 225.249 93.5606 225.722 94.1477C226.196 94.7254 226.826 95.1752 227.612 95.4972C228.397 95.8191 229.278 95.9801 230.254 95.9801C231.295 95.9801 232.219 95.8002 233.023 95.4403C233.828 95.071 234.458 94.5597 234.913 93.9062C235.367 93.2528 235.59 92.5 235.58 91.6477C235.59 90.767 235.362 89.9905 234.898 89.3182C234.434 88.6458 233.762 88.1203 232.881 87.7415C232.01 87.3627 230.959 87.1733 229.728 87.1733H227.157V83.1108H229.728C230.741 83.1108 231.627 82.9356 232.384 82.5852C233.151 82.2348 233.753 81.7424 234.188 81.108C234.624 80.464 234.837 79.7206 234.827 78.8778C234.837 78.054 234.652 77.339 234.273 76.733C233.904 76.1174 233.379 75.6392 232.697 75.2983C232.024 74.9574 231.234 74.7869 230.325 74.7869C229.434 74.7869 228.611 74.9479 227.853 75.2699C227.095 75.5919 226.485 76.0511 226.021 76.6477C225.557 77.2348 225.31 77.9356 225.282 78.75H220.211C220.249 77.1212 220.718 75.6913 221.617 74.4602C222.526 73.2197 223.738 72.2538 225.254 71.5625C226.769 70.8617 228.469 70.5114 230.353 70.5114C232.294 70.5114 233.98 70.8759 235.41 71.6051C236.849 72.3248 237.962 73.2955 238.748 74.517C239.534 75.7386 239.927 77.0881 239.927 78.5653C239.936 80.2036 239.453 81.5767 238.478 82.6847C237.512 83.7926 236.243 84.517 234.671 84.858V85.0852C236.717 85.3693 238.284 86.1269 239.373 87.358C240.471 88.5795 241.016 90.0994 241.006 91.9176C241.006 93.5464 240.542 95.0047 239.614 96.2926C238.696 97.571 237.427 98.5748 235.808 99.304C234.198 100.033 232.351 100.398 230.268 100.398Z" fill="#2742F5"/>
<path d="M96.5511 126.545V144H93.9176V126.545H96.5511ZM109.991 134.105L107.682 134.514C107.585 134.219 107.432 133.937 107.222 133.67C107.017 133.403 106.739 133.185 106.386 133.014C106.034 132.844 105.594 132.759 105.065 132.759C104.344 132.759 103.741 132.92 103.259 133.244C102.776 133.562 102.534 133.974 102.534 134.48C102.534 134.918 102.696 135.27 103.02 135.537C103.344 135.804 103.866 136.023 104.588 136.193L106.668 136.67C107.872 136.949 108.77 137.378 109.361 137.957C109.952 138.537 110.247 139.29 110.247 140.216C110.247 141 110.02 141.699 109.565 142.312C109.116 142.92 108.489 143.398 107.682 143.744C106.881 144.091 105.952 144.264 104.895 144.264C103.429 144.264 102.233 143.952 101.307 143.327C100.381 142.696 99.8125 141.801 99.6023 140.642L102.065 140.267C102.219 140.909 102.534 141.395 103.011 141.724C103.489 142.048 104.111 142.21 104.878 142.21C105.713 142.21 106.381 142.037 106.881 141.69C107.381 141.338 107.631 140.909 107.631 140.403C107.631 139.994 107.477 139.651 107.17 139.372C106.869 139.094 106.406 138.884 105.781 138.741L103.565 138.256C102.344 137.977 101.44 137.534 100.855 136.926C100.276 136.318 99.9858 135.548 99.9858 134.616C99.9858 133.844 100.202 133.168 100.634 132.588C101.065 132.009 101.662 131.557 102.423 131.233C103.185 130.903 104.057 130.739 105.04 130.739C106.455 130.739 107.568 131.045 108.381 131.659C109.193 132.267 109.73 133.082 109.991 134.105ZM122.859 134.105L120.549 134.514C120.452 134.219 120.299 133.937 120.089 133.67C119.884 133.403 119.606 133.185 119.254 133.014C118.901 132.844 118.461 132.759 117.933 132.759C117.211 132.759 116.609 132.92 116.126 133.244C115.643 133.562 115.401 133.974 115.401 134.48C115.401 134.918 115.563 135.27 115.887 135.537C116.211 135.804 116.734 136.023 117.455 136.193L119.535 136.67C120.739 136.949 121.637 137.378 122.228 137.957C122.819 138.537 123.114 139.29 123.114 140.216C123.114 141 122.887 141.699 122.433 142.312C121.984 142.92 121.356 143.398 120.549 143.744C119.748 144.091 118.819 144.264 117.762 144.264C116.296 144.264 115.1 143.952 114.174 143.327C113.248 142.696 112.68 141.801 112.469 140.642L114.933 140.267C115.086 140.909 115.401 141.395 115.879 141.724C116.356 142.048 116.978 142.21 117.745 142.21C118.58 142.21 119.248 142.037 119.748 141.69C120.248 141.338 120.498 140.909 120.498 140.403C120.498 139.994 120.344 139.651 120.038 139.372C119.737 139.094 119.273 138.884 118.648 138.741L116.433 138.256C115.211 137.977 114.308 137.534 113.722 136.926C113.143 136.318 112.853 135.548 112.853 134.616C112.853 133.844 113.069 133.168 113.501 132.588C113.933 132.009 114.529 131.557 115.29 131.233C116.052 130.903 116.924 130.739 117.907 130.739C119.322 130.739 120.435 131.045 121.248 131.659C122.06 132.267 122.597 133.082 122.859 134.105ZM134.209 138.571V130.909H136.766V144H134.26V141.733H134.124C133.822 142.432 133.339 143.014 132.675 143.48C132.016 143.94 131.195 144.17 130.212 144.17C129.371 144.17 128.626 143.986 127.979 143.616C127.337 143.241 126.831 142.688 126.462 141.955C126.098 141.222 125.916 140.315 125.916 139.236V130.909H128.464V138.929C128.464 139.821 128.712 140.531 129.206 141.06C129.7 141.588 130.342 141.852 131.132 141.852C131.609 141.852 132.084 141.733 132.555 141.494C133.033 141.256 133.428 140.895 133.74 140.412C134.058 139.929 134.214 139.315 134.209 138.571ZM145.832 144.264C144.542 144.264 143.431 143.989 142.499 143.438C141.573 142.881 140.857 142.099 140.352 141.094C139.852 140.082 139.602 138.898 139.602 137.54C139.602 136.199 139.852 135.017 140.352 133.994C140.857 132.972 141.562 132.173 142.465 131.599C143.374 131.026 144.437 130.739 145.653 130.739C146.391 130.739 147.107 130.861 147.8 131.105C148.494 131.349 149.116 131.733 149.667 132.256C150.218 132.778 150.653 133.457 150.971 134.293C151.289 135.122 151.448 136.131 151.448 137.318V138.222H141.042V136.312H148.951C148.951 135.642 148.815 135.048 148.542 134.531C148.269 134.009 147.886 133.597 147.391 133.295C146.903 132.994 146.329 132.844 145.67 132.844C144.954 132.844 144.329 133.02 143.795 133.372C143.266 133.719 142.857 134.173 142.567 134.736C142.283 135.293 142.141 135.898 142.141 136.551V138.043C142.141 138.918 142.295 139.662 142.602 140.276C142.914 140.889 143.349 141.358 143.906 141.682C144.462 142 145.113 142.159 145.857 142.159C146.34 142.159 146.781 142.091 147.178 141.955C147.576 141.812 147.92 141.602 148.21 141.324C148.499 141.045 148.721 140.702 148.874 140.293L151.286 140.727C151.093 141.437 150.746 142.06 150.246 142.594C149.752 143.122 149.13 143.534 148.38 143.83C147.636 144.119 146.786 144.264 145.832 144.264ZM164.085 134.105L161.776 134.514C161.679 134.219 161.526 133.937 161.315 133.67C161.111 133.403 160.832 133.185 160.48 133.014C160.128 132.844 159.688 132.759 159.159 132.759C158.438 132.759 157.835 132.92 157.352 133.244C156.869 133.562 156.628 133.974 156.628 134.48C156.628 134.918 156.79 135.27 157.114 135.537C157.438 135.804 157.96 136.023 158.682 136.193L160.761 136.67C161.966 136.949 162.864 137.378 163.455 137.957C164.045 138.537 164.341 139.29 164.341 140.216C164.341 141 164.114 141.699 163.659 142.312C163.21 142.92 162.582 143.398 161.776 143.744C160.974 144.091 160.045 144.264 158.989 144.264C157.523 144.264 156.327 143.952 155.401 143.327C154.474 142.696 153.906 141.801 153.696 140.642L156.159 140.267C156.313 140.909 156.628 141.395 157.105 141.724C157.582 142.048 158.205 142.21 158.972 142.21C159.807 142.21 160.474 142.037 160.974 141.69C161.474 141.338 161.724 140.909 161.724 140.403C161.724 139.994 161.571 139.651 161.264 139.372C160.963 139.094 160.5 138.884 159.875 138.741L157.659 138.256C156.438 137.977 155.534 137.534 154.949 136.926C154.369 136.318 154.08 135.548 154.08 134.616C154.08 133.844 154.295 133.168 154.727 132.588C155.159 132.009 155.756 131.557 156.517 131.233C157.278 130.903 158.151 130.739 159.134 130.739C160.548 130.739 161.662 131.045 162.474 131.659C163.287 132.267 163.824 133.082 164.085 134.105ZM173.494 148.909V130.909H175.983V133.031H176.196C176.344 132.759 176.557 132.443 176.835 132.085C177.114 131.727 177.5 131.415 177.994 131.148C178.489 130.875 179.142 130.739 179.955 130.739C181.011 130.739 181.955 131.006 182.784 131.54C183.614 132.074 184.264 132.844 184.736 133.849C185.213 134.855 185.452 136.065 185.452 137.48C185.452 138.895 185.216 140.108 184.744 141.119C184.273 142.125 183.625 142.901 182.801 143.446C181.977 143.986 181.037 144.256 179.98 144.256C179.185 144.256 178.534 144.122 178.028 143.855C177.528 143.588 177.136 143.276 176.852 142.918C176.568 142.56 176.349 142.241 176.196 141.963H176.043V148.909H173.494ZM175.991 137.455C175.991 138.375 176.125 139.182 176.392 139.875C176.659 140.568 177.045 141.111 177.551 141.503C178.057 141.889 178.676 142.082 179.409 142.082C180.17 142.082 180.807 141.881 181.318 141.477C181.83 141.068 182.216 140.514 182.477 139.815C182.744 139.116 182.878 138.33 182.878 137.455C182.878 136.591 182.747 135.815 182.486 135.128C182.23 134.44 181.844 133.898 181.327 133.5C180.815 133.102 180.176 132.903 179.409 132.903C178.67 132.903 178.045 133.094 177.534 133.474C177.028 133.855 176.645 134.386 176.384 135.068C176.122 135.75 175.991 136.545 175.991 137.455ZM193.949 144.264C192.659 144.264 191.548 143.989 190.616 143.438C189.69 142.881 188.974 142.099 188.469 141.094C187.969 140.082 187.719 138.898 187.719 137.54C187.719 136.199 187.969 135.017 188.469 133.994C188.974 132.972 189.679 132.173 190.582 131.599C191.491 131.026 192.554 130.739 193.77 130.739C194.509 130.739 195.224 130.861 195.918 131.105C196.611 131.349 197.233 131.733 197.784 132.256C198.335 132.778 198.77 133.457 199.088 134.293C199.406 135.122 199.565 136.131 199.565 137.318V138.222H189.159V136.312H197.068C197.068 135.642 196.932 135.048 196.659 134.531C196.386 134.009 196.003 133.597 195.509 133.295C195.02 132.994 194.446 132.844 193.787 132.844C193.071 132.844 192.446 133.02 191.912 133.372C191.384 133.719 190.974 134.173 190.685 134.736C190.401 135.293 190.259 135.898 190.259 136.551V138.043C190.259 138.918 190.412 139.662 190.719 140.276C191.031 140.889 191.466 141.358 192.023 141.682C192.58 142 193.23 142.159 193.974 142.159C194.457 142.159 194.898 142.091 195.295 141.955C195.693 141.812 196.037 141.602 196.327 141.324C196.616 141.045 196.838 140.702 196.991 140.293L199.403 140.727C199.21 141.437 198.864 142.06 198.364 142.594C197.869 143.122 197.247 143.534 196.497 143.83C195.753 144.119 194.903 144.264 193.949 144.264ZM202.393 144V130.909H204.856V132.989H204.992C205.231 132.284 205.651 131.73 206.254 131.327C206.862 130.918 207.549 130.713 208.316 130.713C208.475 130.713 208.663 130.719 208.879 130.73C209.1 130.741 209.273 130.756 209.398 130.773V133.21C209.296 133.182 209.114 133.151 208.853 133.116C208.592 133.077 208.33 133.057 208.069 133.057C207.467 133.057 206.93 133.185 206.458 133.44C205.992 133.69 205.623 134.04 205.35 134.489C205.077 134.932 204.941 135.437 204.941 136.006V144H202.393ZM223.597 144.264C222.308 144.264 221.197 143.989 220.265 143.438C219.339 142.881 218.623 142.099 218.117 141.094C217.617 140.082 217.367 138.898 217.367 137.54C217.367 136.199 217.617 135.017 218.117 133.994C218.623 132.972 219.327 132.173 220.231 131.599C221.14 131.026 222.202 130.739 223.418 130.739C224.157 130.739 224.873 130.861 225.566 131.105C226.259 131.349 226.881 131.733 227.433 132.256C227.984 132.778 228.418 133.457 228.737 134.293C229.055 135.122 229.214 136.131 229.214 137.318V138.222H218.808V136.312H226.717C226.717 135.642 226.58 135.048 226.308 134.531C226.035 134.009 225.651 133.597 225.157 133.295C224.668 132.994 224.094 132.844 223.435 132.844C222.719 132.844 222.094 133.02 221.56 133.372C221.032 133.719 220.623 134.173 220.333 134.736C220.049 135.293 219.907 135.898 219.907 136.551V138.043C219.907 138.918 220.06 139.662 220.367 140.276C220.68 140.889 221.114 141.358 221.671 141.682C222.228 142 222.879 142.159 223.623 142.159C224.106 142.159 224.546 142.091 224.944 141.955C225.342 141.812 225.685 141.602 225.975 141.324C226.265 141.045 226.487 140.702 226.64 140.293L229.052 140.727C228.859 141.437 228.512 142.06 228.012 142.594C227.518 143.122 226.896 143.534 226.146 143.83C225.401 144.119 224.552 144.264 223.597 144.264ZM232.041 144V130.909H234.487V133.04H234.649C234.922 132.318 235.368 131.756 235.987 131.352C236.607 130.943 237.348 130.739 238.212 130.739C239.087 130.739 239.82 130.943 240.411 131.352C241.007 131.761 241.447 132.324 241.732 133.04H241.868C242.18 132.341 242.678 131.784 243.359 131.369C244.041 130.949 244.854 130.739 245.797 130.739C246.984 130.739 247.953 131.111 248.703 131.855C249.459 132.599 249.837 133.722 249.837 135.222V144H247.288V135.46C247.288 134.574 247.047 133.932 246.564 133.534C246.081 133.136 245.504 132.938 244.834 132.938C244.004 132.938 243.359 133.193 242.899 133.705C242.439 134.21 242.209 134.861 242.209 135.656V144H239.669V135.298C239.669 134.588 239.447 134.017 239.004 133.585C238.561 133.153 237.984 132.938 237.274 132.938C236.791 132.938 236.345 133.065 235.936 133.321C235.533 133.571 235.206 133.92 234.956 134.369C234.712 134.818 234.589 135.338 234.589 135.929V144H232.041ZM253.252 148.909V130.909H255.741V133.031H255.954C256.102 132.759 256.315 132.443 256.593 132.085C256.871 131.727 257.258 131.415 257.752 131.148C258.246 130.875 258.9 130.739 259.712 130.739C260.769 130.739 261.712 131.006 262.542 131.54C263.371 132.074 264.022 132.844 264.494 133.849C264.971 134.855 265.21 136.065 265.21 137.48C265.21 138.895 264.974 140.108 264.502 141.119C264.031 142.125 263.383 142.901 262.559 143.446C261.735 143.986 260.795 144.256 259.738 144.256C258.942 144.256 258.292 144.122 257.786 143.855C257.286 143.588 256.894 143.276 256.61 142.918C256.326 142.56 256.107 142.241 255.954 141.963H255.8V148.909H253.252ZM255.749 137.455C255.749 138.375 255.883 139.182 256.15 139.875C256.417 140.568 256.803 141.111 257.309 141.503C257.815 141.889 258.434 142.082 259.167 142.082C259.928 142.082 260.565 141.881 261.076 141.477C261.587 141.068 261.974 140.514 262.235 139.815C262.502 139.116 262.636 138.33 262.636 137.455C262.636 136.591 262.505 135.815 262.244 135.128C261.988 134.44 261.602 133.898 261.085 133.5C260.573 133.102 259.934 132.903 259.167 132.903C258.428 132.903 257.803 133.094 257.292 133.474C256.786 133.855 256.403 134.386 256.141 135.068C255.88 135.75 255.749 136.545 255.749 137.455ZM270.613 126.545V144H268.065V126.545H270.613ZM279.555 144.264C278.328 144.264 277.257 143.983 276.342 143.42C275.428 142.858 274.717 142.071 274.212 141.06C273.706 140.048 273.453 138.866 273.453 137.514C273.453 136.156 273.706 134.969 274.212 133.952C274.717 132.935 275.428 132.145 276.342 131.582C277.257 131.02 278.328 130.739 279.555 130.739C280.783 130.739 281.854 131.02 282.768 131.582C283.683 132.145 284.393 132.935 284.899 133.952C285.405 134.969 285.658 136.156 285.658 137.514C285.658 138.866 285.405 140.048 284.899 141.06C284.393 142.071 283.683 142.858 282.768 143.42C281.854 143.983 280.783 144.264 279.555 144.264ZM279.564 142.125C280.359 142.125 281.018 141.915 281.541 141.494C282.064 141.074 282.45 140.514 282.7 139.815C282.956 139.116 283.084 138.347 283.084 137.506C283.084 136.67 282.956 135.903 282.7 135.205C282.45 134.5 282.064 133.935 281.541 133.509C281.018 133.082 280.359 132.869 279.564 132.869C278.763 132.869 278.098 133.082 277.57 133.509C277.047 133.935 276.658 134.5 276.402 135.205C276.152 135.903 276.027 136.67 276.027 137.506C276.027 138.347 276.152 139.116 276.402 139.815C276.658 140.514 277.047 141.074 277.57 141.494C278.098 141.915 278.763 142.125 279.564 142.125ZM289.668 148.909C289.287 148.909 288.94 148.878 288.628 148.815C288.315 148.759 288.082 148.696 287.929 148.628L288.543 146.54C289.009 146.665 289.423 146.719 289.787 146.702C290.151 146.685 290.472 146.548 290.75 146.293C291.034 146.037 291.284 145.619 291.5 145.04L291.815 144.17L287.026 130.909H289.753L293.068 141.068H293.205L296.52 130.909H299.256L293.861 145.747C293.611 146.429 293.293 147.006 292.906 147.477C292.52 147.955 292.06 148.313 291.526 148.551C290.991 148.79 290.372 148.909 289.668 148.909ZM306.847 144.264C305.558 144.264 304.447 143.989 303.515 143.438C302.589 142.881 301.873 142.099 301.367 141.094C300.867 140.082 300.617 138.898 300.617 137.54C300.617 136.199 300.867 135.017 301.367 133.994C301.873 132.972 302.577 132.173 303.481 131.599C304.39 131.026 305.452 130.739 306.668 130.739C307.407 130.739 308.123 130.861 308.816 131.105C309.509 131.349 310.131 131.733 310.683 132.256C311.234 132.778 311.668 133.457 311.987 134.293C312.305 135.122 312.464 136.131 312.464 137.318V138.222H302.058V136.312H309.967C309.967 135.642 309.83 135.048 309.558 134.531C309.285 134.009 308.901 133.597 308.407 133.295C307.918 132.994 307.344 132.844 306.685 132.844C305.969 132.844 305.344 133.02 304.81 133.372C304.282 133.719 303.873 134.173 303.583 134.736C303.299 135.293 303.157 135.898 303.157 136.551V138.043C303.157 138.918 303.31 139.662 303.617 140.276C303.93 140.889 304.364 141.358 304.921 141.682C305.478 142 306.129 142.159 306.873 142.159C307.356 142.159 307.796 142.091 308.194 141.955C308.592 141.812 308.935 141.602 309.225 141.324C309.515 141.045 309.737 140.702 309.89 140.293L312.302 140.727C312.109 141.437 311.762 142.06 311.262 142.594C310.768 143.122 310.146 143.534 309.396 143.83C308.651 144.119 307.802 144.264 306.847 144.264ZM320.933 144.264C319.643 144.264 318.533 143.989 317.601 143.438C316.675 142.881 315.959 142.099 315.453 141.094C314.953 140.082 314.703 138.898 314.703 137.54C314.703 136.199 314.953 135.017 315.453 133.994C315.959 132.972 316.663 132.173 317.567 131.599C318.476 131.026 319.538 130.739 320.754 130.739C321.493 130.739 322.209 130.861 322.902 131.105C323.595 131.349 324.217 131.733 324.768 132.256C325.32 132.778 325.754 133.457 326.072 134.293C326.391 135.122 326.55 136.131 326.55 137.318V138.222H316.143V136.312H324.053C324.053 135.642 323.916 135.048 323.643 134.531C323.371 134.009 322.987 133.597 322.493 133.295C322.004 132.994 321.43 132.844 320.771 132.844C320.055 132.844 319.43 133.02 318.896 133.372C318.368 133.719 317.959 134.173 317.669 134.736C317.385 135.293 317.243 135.898 317.243 136.551V138.043C317.243 138.918 317.396 139.662 317.703 140.276C318.016 140.889 318.45 141.358 319.007 141.682C319.564 142 320.214 142.159 320.959 142.159C321.442 142.159 321.882 142.091 322.28 141.955C322.678 141.812 323.021 141.602 323.311 141.324C323.601 141.045 323.822 140.702 323.976 140.293L326.388 140.727C326.195 141.437 325.848 142.06 325.348 142.594C324.854 143.122 324.232 143.534 323.482 143.83C322.737 144.119 321.888 144.264 320.933 144.264ZM339.187 134.105L336.877 134.514C336.781 134.219 336.627 133.937 336.417 133.67C336.212 133.403 335.934 133.185 335.582 133.014C335.229 132.844 334.789 132.759 334.261 132.759C333.539 132.759 332.937 132.92 332.454 133.244C331.971 133.562 331.729 133.974 331.729 134.48C331.729 134.918 331.891 135.27 332.215 135.537C332.539 135.804 333.062 136.023 333.783 136.193L335.863 136.67C337.067 136.949 337.965 137.378 338.556 137.957C339.147 138.537 339.442 139.29 339.442 140.216C339.442 141 339.215 141.699 338.761 142.312C338.312 142.92 337.684 143.398 336.877 143.744C336.076 144.091 335.147 144.264 334.09 144.264C332.624 144.264 331.428 143.952 330.502 143.327C329.576 142.696 329.008 141.801 328.798 140.642L331.261 140.267C331.414 140.909 331.729 141.395 332.207 141.724C332.684 142.048 333.306 142.21 334.073 142.21C334.908 142.21 335.576 142.037 336.076 141.69C336.576 141.338 336.826 140.909 336.826 140.403C336.826 139.994 336.673 139.651 336.366 139.372C336.065 139.094 335.602 138.884 334.977 138.741L332.761 138.256C331.539 137.977 330.636 137.534 330.05 136.926C329.471 136.318 329.181 135.548 329.181 134.616C329.181 133.844 329.397 133.168 329.829 132.588C330.261 132.009 330.857 131.557 331.619 131.233C332.38 130.903 333.252 130.739 334.235 130.739C335.65 130.739 336.763 131.045 337.576 131.659C338.388 132.267 338.925 133.082 339.187 134.105Z" fill="black"/>
</svg>
